<svg width="24" height="24" viewBox="0 0 24 24" fill="none" xmlns="http://www.w3.org/2000/svg">
<g id="Frame">
<path id="Vector" d="M10.4441 5.4668C10.2585 5.46683 10.0805 5.5406 9.94925 5.67187C9.818 5.80314 9.74427 5.98117 9.74427 6.1668C9.74427 6.35243 9.818 6.53045 9.94925 6.66173C10.0805 6.793 10.2585 6.86676 10.4441 6.8668H15.9081C16.0001 6.86681 16.0911 6.84872 16.1761 6.81355C16.261 6.77838 16.3382 6.72682 16.4032 6.66182C16.4682 6.59681 16.5198 6.51964 16.555 6.4347C16.5902 6.34977 16.6083 6.25873 16.6083 6.1668C16.6083 6.07486 16.5902 5.98383 16.555 5.89889C16.5198 5.81395 16.4682 5.73678 16.4032 5.67178C16.3382 5.60677 16.261 5.55522 16.1761 5.52004C16.0911 5.48487 16.0001 5.46678 15.9081 5.4668H10.4441ZM10.4441 9.3558C10.2585 9.3558 10.0804 9.42955 9.94917 9.56082C9.81789 9.6921 9.74414 9.87015 9.74414 10.0558C9.74414 10.2414 9.81789 10.4195 9.94917 10.5508C10.0804 10.682 10.2585 10.7558 10.4441 10.7558H19.0001C19.1858 10.7558 19.3638 10.682 19.4951 10.5508C19.6264 10.4195 19.7001 10.2414 19.7001 10.0558C19.7001 9.87015 19.6264 9.6921 19.4951 9.56082C19.3638 9.42955 19.1858 9.3558 19.0001 9.3558H10.4441Z" fill="#2969FF"/>
<path id="Vector_2" d="M10.4443 13.2441C10.2586 13.2441 10.0806 13.3179 9.94929 13.4492C9.81802 13.5804 9.74427 13.7585 9.74427 13.9441C9.74427 14.1298 9.81802 14.3078 9.94929 14.4391C10.0806 14.5704 10.2586 14.6441 10.4443 14.6441H15.9083C16.0939 14.6441 16.272 14.5704 16.4032 14.4391C16.5345 14.3078 16.6083 14.1298 16.6083 13.9441C16.6083 13.7585 16.5345 13.5804 16.4032 13.4492C16.272 13.3179 16.0939 13.2441 15.9083 13.2441H10.4443ZM10.4443 17.1331C10.3523 17.1331 10.2613 17.1512 10.1764 17.1864C10.0914 17.2216 10.0142 17.2731 9.94921 17.3381C9.8842 17.4031 9.83262 17.4803 9.79744 17.5652C9.76225 17.6502 9.74414 17.7412 9.74414 17.8331C9.74414 17.9251 9.76225 18.0161 9.79744 18.101C9.83262 18.186 9.8842 18.2632 9.94921 18.3282C10.0142 18.3932 10.0914 18.4447 10.1764 18.4799C10.2613 18.5151 10.3523 18.5332 10.4443 18.5331H19.0003C19.0922 18.5332 19.1832 18.5151 19.2682 18.4799C19.3531 18.4447 19.4303 18.3932 19.4953 18.3282C19.5603 18.2632 19.6119 18.186 19.6471 18.101C19.6823 18.0161 19.7004 17.9251 19.7004 17.8331C19.7004 17.7412 19.6823 17.6502 19.6471 17.5652C19.6119 17.4803 19.5603 17.4031 19.4953 17.3381C19.4303 17.2731 19.3531 17.2216 19.2682 17.1864C19.1832 17.1512 19.0922 17.1331 19.0003 17.1331H10.4443Z" fill="#1F2937"/>
<path id="Vector_3" d="M4.50483 5.72504C4.37355 5.85632 4.2998 6.03437 4.2998 6.22002C4.2998 6.40567 4.37355 6.58372 4.50483 6.71499C4.63611 6.84627 4.81415 6.92002 4.9998 6.92002H6.6328V7.09702L4.5048 9.22502C4.43981 9.29003 4.38825 9.3672 4.35307 9.45213C4.3179 9.53706 4.2998 9.62809 4.2998 9.72002V10.109C4.2998 10.2947 4.37355 10.4727 4.50483 10.604C4.63611 10.7353 4.81415 10.809 4.9998 10.809H7.3328C7.42474 10.809 7.51578 10.7909 7.60072 10.7558C7.68566 10.7206 7.76285 10.669 7.82786 10.604C7.89288 10.539 7.94445 10.4619 7.97964 10.3769C8.01482 10.292 8.03293 10.201 8.03293 10.109C8.03293 10.0171 8.01482 9.92605 7.97964 9.84111C7.94445 9.75618 7.89288 9.679 7.82786 9.614C7.76285 9.549 7.68566 9.49744 7.60072 9.46227C7.51578 9.4271 7.42474 9.409 7.3328 9.40902H6.3008L7.8278 7.88202C7.8928 7.81701 7.94436 7.73984 7.97954 7.65491C8.01471 7.56998 8.03281 7.47895 8.0328 7.38702V6.22002C8.0328 6.03437 7.95905 5.85632 7.82778 5.72504C7.6965 5.59377 7.51846 5.52002 7.3328 5.52002H4.9998C4.81415 5.52002 4.63611 5.59377 4.50483 5.72504Z" fill="#2969FF"/>
<path id="3" d="M4.81193 17.2392H6.61913C6.73433 17.2392 6.80873 17.2176 6.84233 17.1744C6.87593 17.1312 6.89273 17.0808 6.89273 17.0232V16.8288C6.89273 16.7712 6.87593 16.7232 6.84233 16.6848C6.80873 16.6416 6.73433 16.62 6.61913 16.62H5.39513C5.30393 16.62 5.23673 16.6008 5.19353 16.5624C5.15513 16.5192 5.13593 16.452 5.13593 16.3608V15.5904C5.13593 15.4992 5.15513 15.4344 5.19353 15.396C5.23673 15.3528 5.30393 15.3312 5.39513 15.3312H6.15113C6.26633 15.3312 6.34073 15.3096 6.37433 15.2664C6.40793 15.2232 6.42473 15.1728 6.42473 15.1152V15.0072C6.42473 14.9496 6.40793 14.8992 6.37433 14.856C6.34073 14.8128 6.26633 14.7912 6.15113 14.7912H4.81193C4.72073 14.7912 4.65353 14.772 4.61033 14.7336C4.57193 14.6904 4.55273 14.6232 4.55273 14.532V13.6752C4.55273 13.584 4.57193 13.5192 4.61033 13.4808C4.65353 13.4376 4.72073 13.416 4.81193 13.416H6.82073C7.21913 13.416 7.51433 13.5096 7.70633 13.6968C7.90313 13.8792 8.00153 14.1288 8.00153 14.4456V14.8632C8.00153 15.0456 7.97033 15.204 7.90793 15.3384C7.84553 15.4728 7.73513 15.5736 7.57673 15.6408C7.91753 15.6792 8.15273 15.7848 8.28233 15.9576C8.41673 16.1256 8.48393 16.368 8.48393 16.6848V17.4048C8.48393 17.7744 8.36633 18.0672 8.13113 18.2832C7.89593 18.4944 7.54793 18.6 7.08713 18.6H4.81193C4.72073 18.6 4.65353 18.5808 4.61033 18.5424C4.57193 18.4992 4.55273 18.432 4.55273 18.3408V17.4984C4.55273 17.4072 4.57193 17.3424 4.61033 17.304C4.65353 17.2608 4.72073 17.2392 4.81193 17.2392Z" fill="#1F2937"/>
</g>
</svg>
