<svg width="24" height="24" viewBox="0 0 24 24" fill="none" xmlns="http://www.w3.org/2000/svg">
<g id="Frame">
<path id="Vector" d="M20.2433 5.87982H3.75695C3.4058 5.87982 3.12012 5.52992 3.12012 5.09982C3.12012 4.66973 3.4058 4.31982 3.75695 4.31982H20.2433C20.5944 4.31982 20.8801 4.66973 20.8801 5.09982C20.8801 5.52992 20.5944 5.87982 20.2433 5.87982Z" fill="#1F2937"/>
<path id="Vector_2" d="M20.2433 19.4399H3.75695C3.4058 19.4399 3.12012 19.09 3.12012 18.6599C3.12012 18.2298 3.4058 17.8799 3.75695 17.8799H20.2433C20.5944 17.8799 20.8801 18.2298 20.8801 18.6599C20.8801 19.09 20.5944 19.4399 20.2433 19.4399Z" fill="#1F2937"/>
<g id="ARP">
<path id="Vector_3" d="M15.9902 15.2402V9.05371H18.1029C19.9571 9.05371 20.5365 9.6688 20.5365 11.1575C20.5365 12.771 19.8501 13.3326 18.1029 13.3326H17.3452V15.2402H15.9902ZM17.3452 12.245H17.9246C18.8428 12.245 19.1548 12.0043 19.1548 11.1842C19.1548 10.3909 18.8339 10.1234 17.9246 10.1234H17.3452V12.245Z" fill="#1F2937"/>
<path id="Vector_4" d="M15.2646 15.2402H13.669L12.2159 12.9849H11.5474V15.2402H10.1924V9.05371H12.2962C13.9631 9.05371 14.6852 9.58857 14.6852 11.0149C14.6852 12.0489 14.3197 12.6016 13.5263 12.8423L15.2646 15.2402ZM11.5474 11.9776H12.0911C13.0004 11.9776 13.3391 11.7993 13.3391 11.0149C13.3391 10.275 13.0004 10.1234 12.0911 10.1234H11.5474V11.9776Z" fill="#1F2937"/>
<path id="Vector_5" d="M8.05633 15.2402L7.53038 13.707H5.01656L4.4817 15.2402H3.07324L5.38204 9.05371H7.20056L9.49153 15.2402H8.05633ZM5.40879 12.5838H7.13816L6.33587 10.2393H6.2289L5.40879 12.5838Z" fill="#1F2937"/>
</g>
</g>
</svg>
