<svg width="40" height="40" viewBox="0 0 40 40" fill="none" xmlns="http://www.w3.org/2000/svg">
<g id="Component 5">
<g id="HTML">
<g id="Group" opacity="0.3">
<path id="Vector" opacity="0.3" d="M25.2892 10.7318C24.5602 10.7311 23.8613 10.4412 23.3459 9.9258C22.8304 9.41035 22.5405 8.71146 22.5398 7.9825V4.1665H10.2545C9.30313 4.1665 8.39071 4.54434 7.71787 5.21694C7.04503 5.88953 6.66686 6.8018 6.6665 7.75317V29.3825C6.66756 30.3334 7.04605 31.245 7.71882 31.917C8.39158 32.589 9.30359 32.9665 10.2545 32.9665H25.0012C25.4725 32.9667 25.9392 32.874 26.3746 32.6938C26.8101 32.5135 27.2058 32.2493 27.5391 31.9161C27.8724 31.5829 28.1369 31.1873 28.3173 30.7519C28.4976 30.3165 28.5905 29.8498 28.5905 29.3785V10.7318H25.2892Z" fill="#00980F"/>
</g>
<path id="Vector_2" d="M28.5907 10.7318H25.2894C24.5604 10.7311 23.8615 10.4412 23.3461 9.9258C22.8306 9.41035 22.5407 8.71145 22.54 7.9825V4.1665L28.5907 10.7318Z" fill="#00980F"/>
<path id="Vector_3" d="M31.1917 26.9131H14.5197C13.3371 26.9131 12.3784 27.8718 12.3784 29.0544V34.0251C12.3784 35.2077 13.3371 36.1664 14.5197 36.1664H31.1917C32.3744 36.1664 33.3331 35.2077 33.3331 34.0251V29.0544C33.3331 27.8718 32.3744 26.9131 31.1917 26.9131Z" fill="#00980F"/>
<path id="Vector_4" d="M15.7335 32.6157V33.5851H14.7295V32.6157H15.7335Z" fill="white"/>
<path id="Vector_5" d="M19.709 29.5757V33.585H18.733V31.9117H17.213V33.585H16.2437V29.5757H17.213V31.129H18.733V29.5757H19.709Z" fill="white"/>
<path id="Vector_6" d="M23.2586 29.5757V30.3464H22.1706V33.585H21.1999V30.3464H20.1226V29.5757H23.2586Z" fill="white"/>
<path id="Vector_7" d="M28.1758 29.604V33.5853H27.1998V31.1L26.3385 33.5893H25.4985L24.6318 31.0947V33.5893H23.6611V29.608H24.8465L25.9305 32.3813L26.9905 29.608L28.1758 29.604Z" fill="white"/>
<path id="Vector_8" d="M29.8146 32.8424H31.108V33.585H28.8413V29.5757H29.812L29.8146 32.8424Z" fill="white"/>
<path id="Vector_9" d="M12.2183 19.3917C12.2169 19.3342 12.2347 19.2778 12.269 19.2317C12.3095 19.1797 12.3581 19.1347 12.413 19.0983C12.4961 19.055 12.5821 19.0176 12.6704 18.9863L12.9277 18.8797L13.957 18.4463C14.1001 18.3797 14.3668 18.2685 14.757 18.113L15.2464 17.913L15.4223 17.8503L15.453 17.837C15.4614 17.8351 15.47 17.8351 15.4784 17.837C15.4981 17.8281 15.5194 17.8236 15.541 17.8237C15.5823 17.8215 15.6236 17.8276 15.6625 17.8416C15.7014 17.8555 15.7372 17.8771 15.7677 17.905C15.7931 17.9296 15.8134 17.959 15.8274 17.9915C15.8414 18.024 15.8487 18.0589 15.849 18.0943V18.433C15.8478 18.4961 15.8279 18.5573 15.7917 18.609C15.7554 18.6673 15.7004 18.7114 15.6357 18.7343L13.533 19.5943L15.6357 20.4543C15.6981 20.4799 15.7522 20.5223 15.7917 20.577C15.8293 20.6264 15.8494 20.6869 15.849 20.749V21.0877C15.8482 21.1599 15.819 21.2288 15.7677 21.2797C15.7377 21.3085 15.7021 21.3308 15.6631 21.3453C15.6241 21.3597 15.5826 21.366 15.541 21.3637C15.5196 21.3635 15.4983 21.3595 15.4784 21.3517L15.4223 21.333L15.2464 21.2703L14.757 21.069L13.957 20.737L12.9277 20.3037L12.6704 20.197C12.5864 20.1637 12.501 20.1263 12.413 20.0837C12.3583 20.0583 12.3113 20.0187 12.2771 19.9689C12.2428 19.9192 12.2225 19.8612 12.2183 19.801V19.3917Z" fill="#00980F"/>
<path id="Vector_10" d="M16.4294 21.7262C16.3462 21.7291 16.265 21.7011 16.2014 21.6476C16.173 21.6256 16.15 21.5976 16.1341 21.5655C16.1182 21.5334 16.1097 21.4981 16.1094 21.4622C16.1094 21.4116 16.26 21.0622 16.5614 20.3956L17.0014 19.4289L17.0947 19.2276L17.804 17.6529L18.0547 17.1076L18.1054 16.9822C18.1248 16.936 18.148 16.8914 18.1747 16.8489C18.2099 16.7912 18.2598 16.7438 18.3193 16.7117C18.3788 16.6796 18.4458 16.6639 18.5134 16.6662H18.8267C18.9102 16.6634 18.9918 16.6914 19.056 16.7449C19.0841 16.767 19.1069 16.7951 19.1226 16.8272C19.1383 16.8593 19.1465 16.8945 19.1467 16.9302C19.04 17.2411 18.9144 17.5453 18.7707 17.8409L18.7014 17.9916L18.168 19.1582L17.4587 20.7329L17.208 21.2796L17.1574 21.4049C17.1394 21.455 17.1167 21.5032 17.0894 21.5489C17.0516 21.6057 17.0002 21.6522 16.9399 21.6841C16.8796 21.716 16.8123 21.7323 16.744 21.7316L16.4294 21.7262Z" fill="#00980F"/>
<path id="Vector_11" d="M19.724 21.3664C19.6816 21.3691 19.6391 21.363 19.5992 21.3486C19.5593 21.3341 19.5228 21.3116 19.492 21.2824C19.4662 21.2575 19.4458 21.2277 19.4318 21.1947C19.4178 21.1617 19.4106 21.1263 19.4107 21.0904V20.7518C19.4101 20.6903 19.4287 20.6301 19.464 20.5798C19.5039 20.5238 19.5596 20.4811 19.624 20.4571L21.732 19.5971L19.624 18.7371C19.5598 18.7088 19.5051 18.6625 19.4666 18.6038C19.4312 18.5528 19.4117 18.4925 19.4107 18.4304V18.0864C19.4107 18.0508 19.4182 18.0155 19.4326 17.9829C19.4471 17.9503 19.4682 17.9211 19.4946 17.8971C19.5575 17.8411 19.6398 17.8119 19.724 17.8158C19.7439 17.8153 19.7637 17.8199 19.7813 17.8291C19.7928 17.8271 19.8045 17.8271 19.816 17.8291L19.844 17.8424C19.8347 17.8424 19.892 17.8584 20.0133 17.9051L20.5093 18.1051C20.4835 18.0935 20.7502 18.2047 21.3093 18.4384C21.6142 18.5638 21.9635 18.7122 22.3573 18.8838C22.3826 18.8918 22.416 18.9051 22.4586 18.9211L22.6027 18.9784C22.6871 19.0086 22.7688 19.046 22.8467 19.0904C22.9028 19.1157 22.9508 19.1562 22.9852 19.2074C23.0196 19.2585 23.0391 19.3182 23.0413 19.3798V19.7931C23.0408 19.8499 23.022 19.905 22.988 19.9504C22.9511 20.0025 22.9027 20.0453 22.8467 20.0758C22.772 20.1131 22.6813 20.1531 22.58 20.1958L22.3133 20.3024L19.9906 21.2744C19.924 21.3078 19.884 21.3291 19.872 21.3371L19.8467 21.3558L19.724 21.3664Z" fill="#00980F"/>
</g>
</g>
</svg>
