<svg width="24" height="24" viewBox="0 0 24 24" fill="none" xmlns="http://www.w3.org/2000/svg">
<g id="Frame">
<path id="Vector" d="M20.2433 5.87982H3.75695C3.4058 5.87982 3.12012 5.52992 3.12012 5.09982C3.12012 4.66973 3.4058 4.31982 3.75695 4.31982H20.2433C20.5944 4.31982 20.8801 4.66973 20.8801 5.09982C20.8801 5.52992 20.5944 5.87982 20.2433 5.87982Z" fill="#1F2937"/>
<path id="Vector_2" d="M20.2433 19.4399H3.75695C3.4058 19.4399 3.12012 19.09 3.12012 18.6599C3.12012 18.2298 3.4058 17.8799 3.75695 17.8799H20.2433C20.5944 17.8799 20.8801 18.2298 20.8801 18.6599C20.8801 19.09 20.5944 19.4399 20.2433 19.4399Z" fill="#1F2937"/>
<g id="ICMP">
<path id="Vector_3" d="M17.9004 15.2402V9.05371H20.0131C21.8672 9.05371 22.4467 9.6688 22.4467 11.1575C22.4467 12.771 21.7603 13.3326 20.0131 13.3326H19.2554V15.2402H17.9004ZM19.2554 12.245H19.8348C20.753 12.245 21.065 12.0043 21.065 11.1842C21.065 10.3909 20.744 10.1234 19.8348 10.1234H19.2554V12.245Z" fill="#1F2937"/>
<path id="Vector_4" d="M10.0391 15.2402V9.05371H12.2409L13.266 12.5392H13.3195L14.3892 9.05371H16.5287V15.2402H15.1915V10.373H15.138L13.9435 14.0725H12.5885L11.4119 10.373H11.3584V15.2402H10.0391Z" fill="#1F2937"/>
<path id="Vector_5" d="M7.49422 15.3292C5.68462 15.3292 4.49902 14.7408 4.49902 12.1468C4.49902 9.75773 5.66679 8.96436 7.48531 8.96436C8.06474 8.96436 8.54611 9.03567 8.92942 9.16938V10.3372C8.54611 10.2034 8.1004 10.1232 7.57445 10.1232C6.46017 10.1232 5.96988 10.6224 5.96988 12.1378C5.96988 13.7424 6.46017 14.1525 7.55662 14.1525C8.06474 14.1525 8.52828 14.0812 9.00074 13.9118V15.0706C8.63525 15.2222 8.09148 15.3292 7.49422 15.3292Z" fill="#1F2937"/>
<path id="Vector_6" d="M1.94336 15.2402V9.05371H3.29833V15.2402H1.94336Z" fill="#1F2937"/>
</g>
</g>
</svg>
