<svg width="24" height="24" viewBox="0 0 24 24" fill="none" xmlns="http://www.w3.org/2000/svg">
<g id="Frame">
<path id="Vector" d="M6.12012 11.0999C6.12012 10.9249 6.17644 10.757 6.27668 10.6333C6.37693 10.5095 6.5129 10.4399 6.65467 10.4399H17.3457C17.4874 10.44 17.6234 10.5095 17.7236 10.6333C17.8238 10.7571 17.8801 10.9249 17.8801 11.0999C17.8801 11.275 17.8238 11.4428 17.7236 11.5666C17.6234 11.6904 17.4874 11.7599 17.3457 11.7599H6.65467C6.5129 11.7599 6.37693 11.6904 6.27668 11.5666C6.17644 11.4429 6.12012 11.275 6.12012 11.0999Z" fill="#2969FF"/>
<g id="Vector_2">
<path d="M9.68027 6.89984C9.68029 6.8079 9.6622 6.71686 9.62703 6.63192C9.59186 6.54697 9.5403 6.46979 9.47529 6.40478C9.41029 6.33976 9.33312 6.28819 9.24818 6.253C9.16325 6.21782 9.07221 6.19971 8.98027 6.19971C8.88834 6.19971 8.7973 6.21782 8.71237 6.253C8.62743 6.28819 8.55026 6.33976 8.48525 6.40478C8.42025 6.46979 8.36869 6.54697 8.33352 6.63192C8.29835 6.71686 8.28026 6.8079 8.28027 6.89984V8.97983C8.28026 9.07177 8.29835 9.16281 8.33352 9.24775C8.36869 9.3327 8.42025 9.40988 8.48525 9.47489C8.55026 9.53991 8.62743 9.59148 8.71237 9.62667C8.7973 9.66185 8.88834 9.67996 8.98027 9.67996C9.07221 9.67996 9.16325 9.66185 9.24818 9.62667C9.33312 9.59148 9.41029 9.53991 9.47529 9.47489C9.5403 9.40988 9.59186 9.3327 9.62703 9.24775C9.6622 9.16281 9.68029 9.07177 9.68027 8.97983V6.89984ZM9.68027 13.1778C9.68029 13.0859 9.6622 12.9949 9.62703 12.9099C9.59186 12.825 9.5403 12.7478 9.47529 12.6828C9.41029 12.6178 9.33312 12.5662 9.24818 12.531C9.16325 12.4958 9.07221 12.4777 8.98027 12.4777C8.88834 12.4777 8.7973 12.4958 8.71237 12.531C8.62743 12.5662 8.55026 12.6178 8.48525 12.6828C8.42025 12.7478 8.36869 12.825 8.33352 12.9099C8.29835 12.9949 8.28026 13.0859 8.28027 13.1778V16.4188C8.28026 16.5108 8.29835 16.6018 8.33352 16.6868C8.36869 16.7717 8.42025 16.8489 8.48525 16.9139C8.55026 16.9789 8.62743 17.0305 8.71237 17.0657C8.7973 17.1009 8.88834 17.119 8.98027 17.119C9.07221 17.119 9.16325 17.1009 9.24818 17.0657C9.33312 17.0305 9.41029 16.9789 9.47529 16.9139C9.5403 16.8489 9.59186 16.7717 9.62703 16.6868C9.6622 16.6018 9.68029 16.5108 9.68027 16.4188V13.1778ZM16.0573 6.89984C16.0573 6.8079 16.0392 6.71686 16.004 6.63192C15.9689 6.54697 15.9173 6.46979 15.8523 6.40478C15.7873 6.33976 15.7101 6.28819 15.6252 6.253C15.5402 6.21782 15.4492 6.19971 15.3573 6.19971C15.2653 6.19971 15.1743 6.21782 15.0894 6.253C15.0044 6.28819 14.9273 6.33976 14.8623 6.40478C14.7973 6.46979 14.7457 6.54697 14.7105 6.63192C14.6754 6.71686 14.6573 6.8079 14.6573 6.89984V8.97983C14.6573 9.07177 14.6754 9.16281 14.7105 9.24775C14.7457 9.3327 14.7973 9.40988 14.8623 9.47489C14.9273 9.53991 15.0044 9.59148 15.0894 9.62667C15.1743 9.66185 15.2653 9.67996 15.3573 9.67996C15.4492 9.67996 15.5402 9.66185 15.6252 9.62667C15.7101 9.59148 15.7873 9.53991 15.8523 9.47489C15.9173 9.40988 15.9689 9.3327 16.004 9.24775C16.0392 9.16281 16.0573 9.07177 16.0573 8.97983V6.89984ZM15.3563 12.4798C15.5419 12.4798 15.72 12.5536 15.8512 12.6849C15.9825 12.8161 16.0563 12.9942 16.0563 13.1798V16.9398C16.0563 17.1255 15.9825 17.3035 15.8512 17.4348C15.72 17.5661 15.5419 17.6398 15.3563 17.6398C15.1706 17.6398 14.9926 17.5661 14.8613 17.4348C14.73 17.3035 14.6563 17.1255 14.6563 16.9398V13.1798C14.6563 12.9942 14.73 12.8161 14.8613 12.6849C14.9926 12.5536 15.1706 12.4798 15.3563 12.4798Z" fill="#1F2937"/>
<path d="M12.868 6.63192C12.9032 6.71686 12.9213 6.8079 12.9213 6.89984V8.97983C12.9213 9.07177 12.9032 9.16281 12.868 9.24775C12.8329 9.3327 12.7813 9.40988 12.7163 9.47489C12.6513 9.53991 12.5741 9.59148 12.4892 9.62667C12.4042 9.66185 12.3132 9.67996 12.2213 9.67996C12.1293 9.67996 12.0383 9.66185 11.9534 9.62667C11.8684 9.59148 11.7913 9.53991 11.7263 9.47489C11.6613 9.40988 11.6097 9.3327 11.5745 9.24775C11.5394 9.16281 11.5213 9.07177 11.5213 8.97983V6.89984C11.5213 6.8079 11.5394 6.71686 11.5745 6.63192C11.6097 6.54697 11.6613 6.46979 11.7263 6.40478C11.7913 6.33976 11.8684 6.28819 11.9534 6.253C12.0383 6.21782 12.1293 6.19971 12.2213 6.19971C12.3132 6.19971 12.4042 6.21782 12.4892 6.253C12.5741 6.28819 12.6513 6.33976 12.7163 6.40478C12.7813 6.46979 12.8329 6.54697 12.868 6.63192Z" fill="#1F2937"/>
<path d="M12.7152 12.6849C12.584 12.5536 12.4059 12.4798 12.2203 12.4798C12.0346 12.4798 11.8566 12.5536 11.7253 12.6849C11.594 12.8161 11.5203 12.9942 11.5203 13.1798V15.0198C11.5203 15.2055 11.594 15.3835 11.7253 15.5148C11.8566 15.6461 12.0346 15.7198 12.2203 15.7198C12.4059 15.7198 12.584 15.6461 12.7152 15.5148C12.8465 15.3835 12.9203 15.2055 12.9203 15.0198V13.1798C12.9203 12.9942 12.8465 12.8161 12.7152 12.6849Z" fill="#1F2937"/>
</g>
<rect id="Rectangle 2930" x="4.08008" y="4.2002" width="15.96" height="15.48" rx="2.16" stroke="#1F2937" stroke-width="1.2"/>
</g>
</svg>
