<svg width="24" height="24" viewBox="0 0 24 24" fill="none" xmlns="http://www.w3.org/2000/svg">
<g id="Frame">
<path id="Vector" d="M20.2433 5.87982H3.75695C3.4058 5.87982 3.12012 5.52992 3.12012 5.09982C3.12012 4.66973 3.4058 4.31982 3.75695 4.31982H20.2433C20.5944 4.31982 20.8801 4.66973 20.8801 5.09982C20.8801 5.52992 20.5944 5.87982 20.2433 5.87982Z" fill="#1F2937"/>
<path id="Vector_2" d="M20.2433 19.4399H3.75695C3.4058 19.4399 3.12012 19.09 3.12012 18.6599C3.12012 18.2298 3.4058 17.8799 3.75695 17.8799H20.2433C20.5944 17.8799 20.8801 18.2298 20.8801 18.6599C20.8801 19.09 20.5944 19.4399 20.2433 19.4399Z" fill="#1F2937"/>
<g id="IPv4">
<path id="Vector_3" d="M21.1017 12.8245V13.9209H20.4243V15.2402H19.1852V13.9209H16.4307V12.6551L18.9178 9.05371H20.4243V12.8245H21.1017ZM17.5271 12.8245H19.1852V10.3909H19.1317L17.5271 12.771V12.8245Z" fill="#1F2937"/>
<path id="Vector_4" d="M12.8193 15.24L11.0811 10.4263H12.5163L13.5949 13.8939H13.6484L14.7716 10.4263H16.1533L14.3972 15.24H12.8193Z" fill="#1F2937"/>
<path id="Vector_5" d="M6.07324 15.2402V9.05371H8.18593C10.0401 9.05371 10.6195 9.6688 10.6195 11.1575C10.6195 12.771 9.93313 13.3326 8.18593 13.3326H7.42821V15.2402H6.07324ZM7.42821 12.245H8.00764C8.92581 12.245 9.23781 12.0043 9.23781 11.1842C9.23781 10.3909 8.9169 10.1234 8.00764 10.1234H7.42821V12.245Z" fill="#1F2937"/>
<path id="Vector_6" d="M3.34863 15.2402V9.05371H4.7036V15.2402H3.34863Z" fill="#1F2937"/>
</g>
</g>
</svg>
