<svg width="40" height="40" viewBox="0 0 40 40" fill="none" xmlns="http://www.w3.org/2000/svg">
<g id="Component 5">
<g id="PDF">
<g id="Group" opacity="0.3">
<path id="Vector" opacity="0.3" d="M25.2892 10.7332C24.5602 10.7325 23.8613 10.4426 23.3459 9.92712C22.8304 9.41167 22.5405 8.71277 22.5398 7.98382V4.1665H10.2545C9.3029 4.1665 8.39029 4.54453 7.71741 5.21742C7.04453 5.8903 6.6665 6.8029 6.6665 7.75449V29.3838C6.66792 30.3345 7.04656 31.2458 7.71929 31.9175C8.39201 32.5892 9.30383 32.9665 10.2545 32.9665H25.0025C25.9532 32.9665 26.865 32.5892 27.5377 31.9175C28.2104 31.2458 28.5891 30.3345 28.5905 29.3838V10.7332H25.2892Z" fill="#FF2424"/>
</g>
<path id="Vector_2" d="M28.5907 10.7332H25.2894C24.5604 10.7325 23.8615 10.4426 23.3461 9.92712C22.8306 9.41167 22.5407 8.71277 22.54 7.98382V4.1665L28.5907 10.7332Z" fill="#FF2424"/>
<path id="Vector_3" d="M24.0798 24.2785H10.3145C10.1818 24.2785 10.0547 24.2258 9.9609 24.132C9.86713 24.0382 9.81445 23.9111 9.81445 23.7785C9.81481 23.6461 9.86764 23.5192 9.96137 23.4257C10.0551 23.3323 10.1821 23.2798 10.3145 23.2798H24.0798C24.212 23.2798 24.3389 23.3323 24.4324 23.4258C24.5259 23.5193 24.5784 23.6462 24.5784 23.7785C24.5786 23.844 24.5659 23.909 24.5409 23.9697C24.5159 24.0303 24.4792 24.0855 24.4329 24.1319C24.3865 24.1783 24.3315 24.2152 24.2709 24.2404C24.2103 24.2655 24.1454 24.2785 24.0798 24.2785Z" fill="#FF2424"/>
<path id="Vector_4" d="M24.0798 18.6466H10.3145C10.1821 18.6466 10.0551 18.5941 9.96137 18.5006C9.86764 18.4071 9.81481 18.2803 9.81445 18.1479C9.81445 18.0153 9.86713 17.8881 9.9609 17.7944C10.0547 17.7006 10.1818 17.6479 10.3145 17.6479H24.0798C24.1454 17.6479 24.2103 17.6609 24.2709 17.686C24.3315 17.7112 24.3865 17.748 24.4329 17.7945C24.4792 17.8409 24.5159 17.8961 24.5409 17.9567C24.5659 18.0174 24.5786 18.0824 24.5784 18.1479C24.5784 18.2802 24.5259 18.407 24.4324 18.5006C24.3389 18.5941 24.212 18.6466 24.0798 18.6466Z" fill="#FF2424"/>
<path id="Vector_5" d="M24.0798 21.4625H10.3145C10.1818 21.4625 10.0547 21.4098 9.9609 21.3161C9.86713 21.2223 9.81445 21.0951 9.81445 20.9625C9.81481 20.8302 9.86764 20.7033 9.96137 20.6098C10.0551 20.5164 10.1821 20.4639 10.3145 20.4639H24.0798C24.212 20.4639 24.3389 20.5164 24.4324 20.6099C24.5259 20.7034 24.5784 20.8303 24.5784 20.9625C24.5786 21.0281 24.5659 21.0931 24.5409 21.1538C24.5159 21.2144 24.4792 21.2696 24.4329 21.316C24.3865 21.3625 24.3315 21.3993 24.2709 21.4244C24.2103 21.4496 24.1454 21.4625 24.0798 21.4625Z" fill="#FF2424"/>
<path id="Vector_6" d="M18.6505 15.8307H10.3145C10.1821 15.8307 10.0551 15.7782 9.96137 15.6847C9.86764 15.5913 9.81481 15.4644 9.81445 15.332C9.81445 15.1994 9.86713 15.0723 9.9609 14.9785C10.0547 14.8847 10.1818 14.832 10.3145 14.832H18.6505C18.7828 14.8324 18.9097 14.8852 19.0031 14.9789C19.0966 15.0727 19.1491 15.1997 19.1491 15.332C19.1488 15.4642 19.0961 15.5908 19.0027 15.6842C18.9092 15.7777 18.7826 15.8303 18.6505 15.8307Z" fill="#FF2424"/>
<path id="Vector_7" d="M18.6505 13.0148H10.3145C10.1821 13.0148 10.0551 12.9623 9.96137 12.8688C9.86764 12.7753 9.81481 12.6485 9.81445 12.5161C9.81445 12.3835 9.86713 12.2563 9.9609 12.1625C10.0547 12.0688 10.1818 12.0161 10.3145 12.0161H18.6505C18.7828 12.0165 18.9097 12.0693 19.0031 12.163C19.0966 12.2568 19.1491 12.3837 19.1491 12.5161C19.1488 12.6483 19.0961 12.7749 19.0027 12.8683C18.9092 12.9618 18.7826 13.0144 18.6505 13.0148Z" fill="#FF2424"/>
<path id="Vector_8" d="M31.1918 26.9146H14.5198C13.3371 26.9146 12.3784 27.8733 12.3784 29.0559V34.0265C12.3784 35.2092 13.3371 36.1679 14.5198 36.1679H31.1918C32.3744 36.1679 33.3331 35.2092 33.3331 34.0265V29.0559C33.3331 27.8733 32.3744 26.9146 31.1918 26.9146Z" fill="#FF2424"/>
<path id="Vector_9" d="M17.8479 32.6172V33.5865H16.8452V32.6172H17.8479Z" fill="white"/>
<path id="Vector_10" d="M19.3224 32.1798V33.5865H18.353V29.5771H19.9237C20.3997 29.5771 20.7637 29.6958 21.013 29.9318C21.1392 30.0558 21.2377 30.2051 21.302 30.3698C21.3664 30.5346 21.3951 30.7111 21.3864 30.8878C21.3912 31.1209 21.3337 31.3511 21.2197 31.5545C21.1033 31.7533 20.9307 31.9134 20.7237 32.0145C20.474 32.1325 20.1998 32.1896 19.9237 32.1812L19.3224 32.1798ZM20.3997 30.8878C20.3997 30.5322 20.205 30.3545 19.8157 30.3545H19.3224V31.3985H19.8157C20.205 31.402 20.3997 31.2318 20.3997 30.8878Z" fill="white"/>
<path id="Vector_11" d="M25.2171 32.6201C25.0502 32.9232 24.798 33.1708 24.4918 33.3321C24.1472 33.5085 23.7641 33.596 23.3771 33.5867H21.8638V29.5774H23.3771C23.7644 29.5677 24.1481 29.6533 24.4944 29.8267C24.7998 29.9845 25.0514 30.2296 25.2171 30.5307C25.3906 30.8504 25.4779 31.2098 25.4704 31.5734C25.4777 31.9383 25.3904 32.2988 25.2171 32.6201ZM24.1744 32.4187C24.2828 32.3075 24.3668 32.1748 24.421 32.0293C24.4752 31.8837 24.4984 31.7284 24.4891 31.5734C24.4984 31.4186 24.4752 31.2635 24.4211 31.1181C24.3669 30.9727 24.2829 30.8403 24.1744 30.7294C23.9319 30.5166 23.6151 30.4083 23.2931 30.4281H22.8331V32.7187H23.2931C23.6149 32.7383 23.9314 32.6305 24.1744 32.4187Z" fill="white"/>
<path id="Vector_12" d="M28.6347 29.5771V30.3492H26.9907V31.2278H28.26V31.9651H26.9907V33.5865H26.02V29.5771H28.6347Z" fill="white"/>
<path id="Vector_13" d="M23.8357 12.0156H21.4784C21.0675 12.0156 20.7344 12.3487 20.7344 12.7596V15.117C20.7344 15.5279 21.0675 15.861 21.4784 15.861H23.8357C24.2466 15.861 24.5797 15.5279 24.5797 15.117V12.7596C24.5797 12.3487 24.2466 12.0156 23.8357 12.0156Z" fill="#FF2424"/>
</g>
</g>
</svg>
