<svg width="24" height="24" viewBox="0 0 24 24" fill="none" xmlns="http://www.w3.org/2000/svg">
<g id="Frame">
<path id="Vector" d="M7.72161 4.15576C7.55193 4.15581 7.38899 4.2222 7.26761 4.34076L4.86461 6.68676C4.79514 6.74659 4.73152 6.81289 4.67461 6.88476C4.46439 7.14841 4.34982 7.47557 4.34961 7.81276V18.3818C4.34961 19.1618 4.96161 19.8448 5.77761 19.8448H18.2216C19.0376 19.8448 19.6496 19.1628 19.6496 18.3818V7.81276C19.6495 7.59986 19.6037 7.38947 19.5154 7.19576C19.427 7.00204 19.2982 6.8295 19.1376 6.68976L16.7316 4.33976C16.6101 4.22157 16.4471 4.15554 16.2776 4.15576H7.72161ZM16.9296 6.34976H7.07061L7.98661 5.45576H16.0126L16.9286 6.34976H16.9296ZM5.67861 7.70976L5.71961 7.66976C5.7367 7.65783 5.75679 7.6509 5.77761 7.64976H18.2216C18.2376 7.64976 18.2596 7.65576 18.2806 7.66976L18.3196 7.70776C18.3402 7.73881 18.3507 7.7755 18.3496 7.81276V18.3818C18.3496 18.4988 18.2656 18.5448 18.2216 18.5448H5.77761C5.73361 18.5448 5.64961 18.4988 5.64961 18.3818V7.81276C5.6487 7.77584 5.65918 7.73953 5.67961 7.70876L5.67861 7.70976Z" fill="#1F2937"/>
<path id="Vector_2" d="M10.2524 10.671C10.3665 10.5656 10.4352 10.4201 10.4442 10.265C10.4532 10.11 10.4016 9.95747 10.3005 9.83961C10.1993 9.72175 10.0564 9.6477 9.90179 9.63305C9.74717 9.6184 9.59289 9.66427 9.47139 9.76103L8.10939 10.927C8.04438 10.9827 7.99207 11.0517 7.95602 11.1293C7.91996 11.207 7.90099 11.2914 7.90039 11.377V11.382C7.9006 11.4616 7.91652 11.5404 7.94724 11.6139C7.97795 11.6873 8.02286 11.754 8.07939 11.81L9.43739 13.168C9.55029 13.279 9.70245 13.3408 9.86073 13.3401C10.019 13.3393 10.1706 13.2761 10.2825 13.1641C10.3943 13.0521 10.4574 12.9005 10.4579 12.7422C10.4585 12.5839 10.3965 12.4318 10.2854 12.319L9.94839 11.982H12.9714C14.0664 11.982 14.8614 12.667 14.8994 13.609C14.9384 14.609 14.1224 15.379 12.9714 15.379H9.66639C9.50726 15.379 9.35465 15.4422 9.24213 15.5548C9.1296 15.6673 9.06639 15.8199 9.06639 15.979C9.06639 16.1382 9.1296 16.2908 9.24213 16.4033C9.35465 16.5158 9.50726 16.579 9.66639 16.579H12.9714C14.6494 16.579 16.1694 15.389 16.0984 13.562C16.0304 11.829 14.5534 10.782 12.9714 10.782H10.1214L10.2514 10.672L10.2524 10.671Z" fill="#2969FF"/>
</g>
</svg>
