<svg width="24" height="24" viewBox="0 0 24 24" fill="none" xmlns="http://www.w3.org/2000/svg">
<g id="Frame">
<rect width="24" height="24" fill="white"/>
<path id="Vector" d="M9.69295 15.469C9.73777 15.3272 9.82658 15.2034 9.94651 15.1154C10.0664 15.0275 10.2112 14.9801 10.3599 14.98H13.6399C13.7887 14.9801 13.9335 15.0275 14.0534 15.1154C14.1733 15.2034 14.2621 15.3272 14.3069 15.469L15.0669 17.869C15.1001 17.9738 15.1081 18.085 15.0902 18.1935C15.0724 18.302 15.0293 18.4048 14.9643 18.4935C14.8993 18.5822 14.8144 18.6544 14.7164 18.7042C14.6183 18.7539 14.5099 18.7799 14.3999 18.78H9.59995C9.48999 18.7799 9.38159 18.7539 9.28354 18.7042C9.1855 18.6544 9.10055 18.5822 9.03559 18.4935C8.97063 18.4048 8.92749 18.302 8.90966 18.1935C8.89182 18.085 8.8998 17.9738 8.93295 17.869L9.69295 15.469ZM10.8729 16.38L10.5559 17.38H13.4439L13.1269 16.38H10.8729Z" fill="#2969FF"/>
<path id="Vector_2" d="M5.59983 4.18018C5.41417 4.18018 5.23613 4.25393 5.10485 4.3852C4.97358 4.51648 4.89983 4.69452 4.89983 4.88018V12.7752L3.32983 17.8742C3.29756 17.979 3.29036 18.0899 3.3088 18.1979C3.32725 18.306 3.37082 18.4082 3.43601 18.4964C3.5012 18.5845 3.58618 18.6561 3.68411 18.7054C3.78205 18.7547 3.89019 18.7803 3.99983 18.7802H19.9998C20.1094 18.7802 20.2174 18.7545 20.3152 18.7051C20.413 18.6557 20.4979 18.5841 20.5629 18.496C20.628 18.4079 20.6715 18.3057 20.6899 18.1977C20.7083 18.0897 20.7011 17.9789 20.6688 17.8742L19.0988 12.7742V4.88018C19.0988 4.69452 19.0251 4.51648 18.8938 4.3852C18.7625 4.25393 18.5845 4.18018 18.3988 4.18018H5.59983ZM17.8828 13.5802L19.0528 17.3802H4.94683L6.11583 13.5802H17.8818H17.8828ZM6.29983 12.1802V5.58018H17.6998V12.1802H6.29983Z" fill="#2B2F36"/>
</g>
</svg>
