<svg width="24" height="24" viewBox="0 0 24 24" fill="none" xmlns="http://www.w3.org/2000/svg">
<g id="Frame">
<path id="Vector" d="M11.6448 3.45509C11.7524 3.39178 11.875 3.3584 11.9998 3.3584C12.1246 3.3584 12.2472 3.39178 12.3548 3.45509L19.1048 7.42509C19.21 7.48697 19.2971 7.57526 19.3576 7.68121C19.4182 7.78716 19.4499 7.90708 19.4498 8.0291V15.9701C19.4499 16.0921 19.4182 16.212 19.3576 16.318C19.2971 16.4239 19.21 16.5122 19.1048 16.5741L12.3548 20.5441C12.2472 20.6074 12.1246 20.6408 11.9998 20.6408C11.875 20.6408 11.7524 20.6074 11.6448 20.5441L4.89481 16.5741C4.78965 16.5122 4.70249 16.4239 4.64197 16.318C4.58146 16.212 4.54968 16.0921 4.54981 15.9701V8.0301C4.54968 7.90808 4.58146 7.78816 4.64197 7.68221C4.70249 7.57626 4.78965 7.48797 4.89481 7.4261L11.6448 3.45609V3.45509ZM5.94981 8.43009V15.5701L11.9998 19.1301L18.0498 15.5711V8.43009L11.9998 4.8701L5.94981 8.43009Z" fill="#1F2937"/>
<path id="Vector_2" d="M15.176 8.91797C15.3617 8.91797 15.5397 8.99172 15.671 9.12299C15.8023 9.25427 15.876 9.43232 15.876 9.61797V14.382C15.876 14.4739 15.8579 14.5649 15.8228 14.6499C15.7876 14.7348 15.736 14.812 15.671 14.877C15.606 14.942 15.5289 14.9936 15.4439 15.0288C15.359 15.064 15.268 15.0821 15.176 15.0821C15.0841 15.0821 14.9931 15.064 14.9081 15.0288C14.8232 14.9936 14.746 14.942 14.681 14.877C14.616 14.812 14.5644 14.7348 14.5293 14.6499C14.4941 14.5649 14.476 14.4739 14.476 14.382V9.61797C14.476 9.43232 14.5498 9.25427 14.681 9.12299C14.8123 8.99172 14.9904 8.91797 15.176 8.91797ZM12 10.506C12.1857 10.506 12.3637 10.5797 12.495 10.711C12.6263 10.8423 12.7 11.0203 12.7 11.206V14.382C12.7 14.5676 12.6263 14.7457 12.495 14.8769C12.3637 15.0082 12.1857 15.082 12 15.082C11.8144 15.082 11.6363 15.0082 11.505 14.8769C11.3738 14.7457 11.3 14.5676 11.3 14.382V11.206C11.3 11.0203 11.3738 10.8423 11.505 10.711C11.6363 10.5797 11.8144 10.506 12 10.506ZM9.52402 12.794C9.52399 12.6083 9.45023 12.4303 9.31895 12.2991C9.18768 12.1678 9.00965 12.0941 8.82402 12.0941C8.63839 12.0941 8.46037 12.1678 8.32909 12.2991C8.19782 12.4303 8.12406 12.6083 8.12402 12.794V14.382C8.12401 14.4739 8.1421 14.5649 8.17727 14.6499C8.21244 14.7348 8.264 14.812 8.329 14.877C8.39401 14.942 8.47118 14.9936 8.55612 15.0288C8.64105 15.064 8.73209 15.0821 8.82402 15.0821C8.91596 15.0821 9.007 15.064 9.09193 15.0288C9.17687 14.9936 9.25404 14.942 9.31904 14.877C9.38405 14.812 9.43561 14.7348 9.47078 14.6499C9.50595 14.5649 9.52404 14.4739 9.52402 14.382V12.794Z" fill="#2969FF"/>
</g>
</svg>
