<svg width="24" height="24" viewBox="0 0 24 24" fill="none" xmlns="http://www.w3.org/2000/svg">
<g id="Frame">
<path id="Vector" d="M20.2433 5.87982H3.75695C3.4058 5.87982 3.12012 5.52992 3.12012 5.09982C3.12012 4.66973 3.4058 4.31982 3.75695 4.31982H20.2433C20.5944 4.31982 20.8801 4.66973 20.8801 5.09982C20.8801 5.52992 20.5944 5.87982 20.2433 5.87982Z" fill="#1F2937"/>
<path id="Vector_2" d="M20.2433 19.4399H3.75695C3.4058 19.4399 3.12012 19.09 3.12012 18.6599C3.12012 18.2298 3.4058 17.8799 3.75695 17.8799H20.2433C20.5944 17.8799 20.8801 18.2298 20.8801 18.6599C20.8801 19.09 20.5944 19.4399 20.2433 19.4399Z" fill="#1F2937"/>
<g id="TCP">
<path id="Vector_3" d="M14.915 15.2402V9.05371H17.0277C18.8819 9.05371 19.4613 9.6688 19.4613 11.1575C19.4613 12.771 18.7749 13.3326 17.0277 13.3326H16.27V15.2402H14.915ZM16.27 12.245H16.8494C17.7676 12.245 18.0796 12.0043 18.0796 11.1842C18.0796 10.3909 17.7587 10.1234 16.8494 10.1234H16.27V12.245Z" fill="#1F2937"/>
<path id="Vector_4" d="M12.3692 15.3292C10.5596 15.3292 9.37402 14.7408 9.37402 12.1468C9.37402 9.75773 10.5418 8.96436 12.3603 8.96436C12.9397 8.96436 13.4211 9.03567 13.8044 9.16938V10.3372C13.4211 10.2034 12.9754 10.1232 12.4495 10.1232C11.3352 10.1232 10.8449 10.6224 10.8449 12.1378C10.8449 13.7424 11.3352 14.1525 12.4316 14.1525C12.9397 14.1525 13.4033 14.0812 13.8757 13.9118V15.0706C13.5103 15.2222 12.9665 15.3292 12.3692 15.3292Z" fill="#1F2937"/>
<path id="Vector_5" d="M8.87308 9.05371V10.2393H7.25068V15.2402H5.90463V10.2393H4.28223V9.05371H8.87308Z" fill="#1F2937"/>
</g>
</g>
</svg>
