<svg width="24" height="24" viewBox="0 0 24 24" fill="none" xmlns="http://www.w3.org/2000/svg">
<g id="Frame">
<path id="Vector" d="M20.2433 5.87982H3.75695C3.4058 5.87982 3.12012 5.52992 3.12012 5.09982C3.12012 4.66973 3.4058 4.31982 3.75695 4.31982H20.2433C20.5944 4.31982 20.8801 4.66973 20.8801 5.09982C20.8801 5.52992 20.5944 5.87982 20.2433 5.87982Z" fill="#1F2937"/>
<path id="Vector_2" d="M20.2433 19.4399H3.75695C3.4058 19.4399 3.12012 19.09 3.12012 18.6599C3.12012 18.2298 3.4058 17.8799 3.75695 17.8799H20.2433C20.5944 17.8799 20.8801 18.2298 20.8801 18.6599C20.8801 19.09 20.5944 19.4399 20.2433 19.4399Z" fill="#1F2937"/>
<g id="UDP">
<path id="Vector_3" d="M16.3555 15.2402V9.05371H18.4682C20.3223 9.05371 20.9018 9.6688 20.9018 11.1575C20.9018 12.771 20.2154 13.3326 18.4682 13.3326H17.7104V15.2402H16.3555ZM17.7104 12.245H18.2899C19.208 12.245 19.52 12.0043 19.52 11.1842C19.52 10.3909 19.1991 10.1234 18.2899 10.1234H17.7104V12.245Z" fill="#1F2937"/>
<path id="Vector_4" d="M10 9.05371H12.1216C13.9401 9.05371 15.1346 9.57074 15.1346 12.147C15.1346 14.536 13.9401 15.2402 12.1216 15.2402H10V9.05371ZM11.355 14.0814H12.0503C13.1913 14.0814 13.7351 13.6535 13.7351 12.147C13.7351 10.5513 13.1646 10.1947 12.0503 10.1947H11.355V14.0814Z" fill="#1F2937"/>
<path id="Vector_5" d="M6.04706 15.3294C4.38009 15.3294 3.46191 14.8213 3.46191 13.1899V9.05371H4.81689V13.0384C4.81689 13.7872 5.0754 14.1705 6.05597 14.1705C7.0722 14.1705 7.30397 13.7248 7.30397 13.0384V9.05371H8.65003V13.1899C8.65003 14.7143 7.70511 15.3294 6.04706 15.3294Z" fill="#1F2937"/>
</g>
</g>
</svg>
