<svg width="40" height="40" viewBox="0 0 40 40" fill="none" xmlns="http://www.w3.org/2000/svg">
<g id="Component 5">
<g id="DOCX">
<g id="Group" opacity="0.3">
<path id="Vector" opacity="0.3" d="M25.2907 10.5736C24.562 10.5729 23.8634 10.2831 23.3481 9.7678C22.8329 9.25254 22.5431 8.5539 22.5424 7.82521V4.00928H10.2628C9.79172 4.0091 9.32517 4.10173 8.88985 4.2819C8.45454 4.46207 8.05899 4.72625 7.72579 5.05932C7.39259 5.39239 7.12828 5.78784 6.94795 6.22309C6.76762 6.65834 6.6748 7.12484 6.6748 7.59596V29.2174C6.6748 29.6886 6.76762 30.1551 6.94795 30.5904C7.12828 31.0256 7.39259 31.421 7.72579 31.7541C8.05899 32.0872 8.45454 32.3513 8.88985 32.5315C9.32517 32.7117 9.79172 32.8043 10.2628 32.8042H25.0042C25.9554 32.8042 26.8677 32.4263 27.5403 31.7536C28.213 31.081 28.5908 30.1687 28.5908 29.2174V10.5736H25.2907Z" fill="#045EE6"/>
</g>
<path id="Vector_2" d="M28.591 10.5736H25.2908C24.5621 10.5729 23.8635 10.2831 23.3482 9.7678C22.833 9.25254 22.5432 8.5539 22.5425 7.82521V4.00928L28.591 10.5736Z" fill="#045EE6"/>
<path id="Vector_3" d="M24.0821 15.1692H10.3217C10.1895 15.1692 10.0627 15.1167 9.96925 15.0232C9.87577 14.9297 9.82324 14.8029 9.82324 14.6707C9.82307 14.6051 9.83584 14.5402 9.86081 14.4795C9.88578 14.4189 9.92247 14.3638 9.96878 14.3174C10.0151 14.2709 10.0701 14.2341 10.1307 14.209C10.1912 14.1838 10.2562 14.1709 10.3217 14.1709H24.0821C24.2146 14.1709 24.3418 14.2236 24.4355 14.3173C24.5292 14.411 24.5819 14.5382 24.5819 14.6707C24.5815 14.803 24.5287 14.9298 24.435 15.0233C24.3413 15.1167 24.2144 15.1692 24.0821 15.1692Z" fill="#045EE6"/>
<path id="Vector_4" d="M24.0821 18.1506H10.3217C10.1895 18.1506 10.0627 18.0981 9.96925 18.0046C9.87577 17.9112 9.82324 17.7844 9.82324 17.6522C9.82307 17.5866 9.83584 17.5216 9.86081 17.461C9.88578 17.4004 9.92247 17.3452 9.96878 17.2988C10.0151 17.2524 10.0701 17.2156 10.1307 17.1904C10.1912 17.1653 10.2562 17.1523 10.3217 17.1523H24.0821C24.2146 17.1523 24.3418 17.205 24.4355 17.2987C24.5292 17.3924 24.5819 17.5196 24.5819 17.6522C24.5815 17.7845 24.5287 17.9113 24.435 18.0047C24.3413 18.0981 24.2144 18.1506 24.0821 18.1506Z" fill="#045EE6"/>
<path id="Vector_5" d="M24.0821 21.1326H10.3217C10.2562 21.1326 10.1912 21.1196 10.1307 21.0945C10.0701 21.0694 10.0151 21.0325 9.96878 20.9861C9.92247 20.9397 9.88578 20.8846 9.86081 20.8239C9.83584 20.7633 9.82307 20.6983 9.82324 20.6328C9.82324 20.5006 9.87577 20.3738 9.96925 20.2803C10.0627 20.1868 10.1895 20.1343 10.3217 20.1343H24.0821C24.2144 20.1343 24.3413 20.1867 24.435 20.2802C24.5287 20.3736 24.5815 20.5004 24.5819 20.6328C24.5819 20.7653 24.5292 20.8924 24.4355 20.9862C24.3418 21.0799 24.2146 21.1326 24.0821 21.1326Z" fill="#045EE6"/>
<path id="Vector_6" d="M18.652 24.114H10.3217C10.2562 24.114 10.1912 24.1011 10.1307 24.076C10.0701 24.0508 10.0151 24.014 9.96878 23.9675C9.92247 23.9211 9.88578 23.866 9.86081 23.8054C9.83584 23.7447 9.82307 23.6798 9.82324 23.6142C9.82324 23.482 9.87577 23.3552 9.96925 23.2617C10.0627 23.1682 10.1895 23.1157 10.3217 23.1157H18.652C18.7842 23.1157 18.911 23.1682 19.0045 23.2617C19.098 23.3552 19.1505 23.482 19.1505 23.6142C19.1507 23.6798 19.1379 23.7447 19.113 23.8054C19.088 23.866 19.0513 23.9211 19.005 23.9675C18.9587 24.014 18.9037 24.0508 18.8431 24.076C18.7825 24.1011 18.7176 24.114 18.652 24.114Z" fill="#045EE6"/>
<path id="Vector_7" d="M31.1927 26.749H14.5268C13.3446 26.749 12.3862 27.7074 12.3862 28.8896V33.8584C12.3862 35.0406 13.3446 35.999 14.5268 35.999H31.1927C32.3749 35.999 33.3333 35.0406 33.3333 33.8584V28.8896C33.3333 27.7074 32.3749 26.749 31.1927 26.749Z" fill="#045EE6"/>
<path id="Vector_8" d="M14.8293 32.4497V33.4187H13.8257V32.4497H14.8293Z" fill="white"/>
<path id="Vector_9" d="M18.6865 32.4524C18.5192 32.7552 18.2672 33.0025 17.9614 33.1641C17.6169 33.3403 17.2339 33.4278 16.8471 33.4187H15.333V29.4109H16.8471C17.2342 29.4014 17.6177 29.487 17.9641 29.6601C18.2689 29.8184 18.5203 30.0632 18.6865 30.3638C18.8588 30.6838 18.9456 31.0428 18.9384 31.4061C18.9452 31.7707 18.8585 32.1309 18.6865 32.4524ZM17.6442 32.2511C17.7525 32.1399 17.8365 32.0073 17.8906 31.8618C17.9448 31.7163 17.968 31.5611 17.9587 31.4061C17.9681 31.2513 17.9449 31.0963 17.8907 30.951C17.8365 30.8057 17.7525 30.6733 17.6442 30.5624C17.4013 30.3495 17.0842 30.2412 16.7618 30.2612H16.3033V32.551H16.7618C17.0839 32.5708 17.4008 32.4631 17.6442 32.2511Z" fill="white"/>
<path id="Vector_10" d="M22.4224 29.6119C22.7274 29.7851 22.9794 30.038 23.1515 30.3436C23.3318 30.6663 23.4238 31.0309 23.418 31.4005C23.4248 31.7711 23.3328 32.1369 23.1515 32.4602C22.9797 32.7671 22.7271 33.0212 22.4211 33.1946C22.1095 33.3725 21.7562 33.4645 21.3974 33.4611C21.0386 33.4645 20.6854 33.3725 20.3738 33.1946C20.0678 33.0212 19.8151 32.7671 19.6434 32.4602C19.4621 32.1369 19.3701 31.7711 19.3768 31.4005C19.3699 31.0308 19.4619 30.6659 19.6434 30.3436C19.816 30.038 20.0685 29.785 20.3738 29.6119C20.6854 29.4339 21.0386 29.3419 21.3974 29.3453C21.7566 29.3422 22.1103 29.4341 22.4224 29.6119ZM20.6364 30.5582C20.4398 30.7934 20.3397 31.0944 20.3565 31.4005C20.3397 31.7054 20.4398 32.0053 20.6364 32.2389C20.7322 32.343 20.8496 32.4249 20.9803 32.4787C21.1111 32.5326 21.2521 32.5572 21.3934 32.5508C21.5343 32.5566 21.6747 32.5318 21.805 32.4779C21.9353 32.4241 22.0522 32.3425 22.1478 32.2389C22.3454 32.0057 22.4465 31.7058 22.4304 31.4005C22.4464 31.0958 22.3464 30.7962 22.1505 30.5622C22.0548 30.458 21.9374 30.3761 21.8066 30.3222C21.6758 30.2683 21.5347 30.2438 21.3934 30.2503C21.2525 30.2438 21.1118 30.268 20.9811 30.3212C20.8504 30.3743 20.7328 30.4552 20.6364 30.5582Z" fill="white"/>
<path id="Vector_11" d="M27.0597 29.7731C27.3978 30.0481 27.6277 30.4338 27.7088 30.862H26.6825C26.6133 30.6846 26.492 30.5322 26.3347 30.4248C26.1688 30.3168 25.9741 30.2616 25.7762 30.2662C25.6455 30.2621 25.5156 30.288 25.3966 30.3421C25.2776 30.3962 25.1726 30.477 25.0898 30.5781C24.9043 30.8156 24.8097 31.1115 24.8232 31.4125C24.8096 31.7123 24.9042 32.007 25.0898 32.2429C25.1732 32.343 25.2785 32.4228 25.3974 32.4761C25.5164 32.5295 25.6459 32.555 25.7762 32.5507C25.9742 32.556 26.169 32.5007 26.3347 32.3921C26.4912 32.2867 26.6124 32.1368 26.6825 31.9616H27.7088C27.6263 32.3886 27.3966 32.773 27.0597 33.0479C26.6972 33.3247 26.2493 33.4662 25.7935 33.4478C25.4344 33.4553 25.0799 33.366 24.7672 33.1892C24.4746 33.0191 24.2372 32.7683 24.0835 32.4668C23.9179 32.1361 23.8351 31.7702 23.8422 31.4005C23.8351 31.0308 23.9179 30.6649 24.0835 30.3342C24.2372 30.0327 24.4746 29.7819 24.7672 29.6118C25.0799 29.435 25.4344 29.3457 25.7935 29.3532C26.2517 29.3411 26.6996 29.4896 27.0597 29.7731Z" fill="white"/>
<path id="Vector_12" d="M30.6847 33.4185L29.8397 32.171L29.1146 33.4185H28.003L29.2852 31.3553L27.9644 29.4106H29.1146L29.937 30.6182L30.6447 29.4106H31.751L30.4861 31.4286L31.835 33.4185H30.6847Z" fill="white"/>
</g>
</g>
</svg>
