<svg width="40" height="40" viewBox="0 0 40 40" fill="none" xmlns="http://www.w3.org/2000/svg">
<g id="Component 5">
<g id="ZIP">
<g id="Group" opacity="0.3">
<path id="Vector" opacity="0.3" d="M25.2897 10.7332C24.5606 10.7321 23.8617 10.4419 23.3463 9.92627C22.8309 9.41061 22.541 8.71158 22.5403 7.9825V4.1665H10.255C9.30339 4.1665 8.39078 4.54452 7.7179 5.2174C7.04501 5.89028 6.66699 6.80291 6.66699 7.75451V29.3838C6.66841 30.3345 7.04705 31.2458 7.71978 31.9175C8.3925 32.5892 9.30431 32.9665 10.255 32.9665H25.003C25.9537 32.9665 26.8655 32.5892 27.5382 31.9175C28.2109 31.2458 28.5896 30.3345 28.591 29.3838V10.7332H25.2897Z" fill="#CB7B1D"/>
</g>
<path id="Vector_2" d="M28.5912 10.7332H25.2899C24.5608 10.7321 23.8619 10.4419 23.3465 9.92627C22.8311 9.41061 22.5412 8.71158 22.5405 7.9825V4.1665L28.5912 10.7332Z" fill="#CB7B1D"/>
<path id="Vector_3" d="M31.1922 26.9146H14.5202C13.3376 26.9146 12.3789 27.8733 12.3789 29.0559V34.0266C12.3789 35.2092 13.3376 36.1679 14.5202 36.1679H31.1922C32.3749 36.1679 33.3336 35.2092 33.3336 34.0266V29.0559C33.3336 27.8733 32.3749 26.9146 31.1922 26.9146Z" fill="#CB7B1D"/>
<path id="Vector_4" d="M18.9801 32.6172V33.5865H17.9761V32.6172H18.9801Z" fill="white"/>
<path id="Vector_5" d="M20.4885 32.8038H22.2578V33.5865H19.4111V32.8492L21.1525 30.3545H19.4338V29.5771H22.2471V30.3145L20.4885 32.8038Z" fill="white"/>
<path id="Vector_6" d="M23.8232 29.5771V33.5865H22.8579V29.5771H23.8232Z" fill="white"/>
<path id="Vector_7" d="M25.4615 32.1798V33.5865H24.4922V29.5771H26.0575C26.5335 29.5771 26.8975 29.6945 27.1468 29.9318C27.2731 30.0555 27.3717 30.2045 27.4363 30.3691C27.5009 30.5336 27.5299 30.7099 27.5215 30.8865C27.5257 31.1197 27.4677 31.3498 27.3535 31.5532C27.2371 31.752 27.0646 31.912 26.8575 32.0132C26.6076 32.1307 26.3336 32.1877 26.0575 32.1798H25.4615ZM26.5389 30.8865C26.5389 30.5354 26.3442 30.3576 25.9548 30.3532H25.4615V31.3958H25.9548C26.3442 31.4003 26.5389 31.2305 26.5389 30.8865Z" fill="white"/>
<path id="Vector_8" d="M17.6272 24.5027C17.1788 24.5019 16.749 24.3234 16.432 24.0062C16.1151 23.689 15.9369 23.2591 15.9365 22.8106V21.1187H19.3192V22.8106C19.3188 23.2593 19.1405 23.6895 18.8232 24.0067C18.506 24.3239 18.0758 24.5023 17.6272 24.5027ZM16.8019 21.984V22.8106C16.8019 23.0297 16.8888 23.2397 17.0435 23.3947C17.1982 23.5497 17.4082 23.637 17.6272 23.6373C17.8463 23.637 18.0564 23.5498 18.2113 23.3948C18.3663 23.2399 18.4535 23.0298 18.4538 22.8106V21.984H16.8019Z" fill="#CB7B1D"/>
<path id="Vector_9" d="M15.9349 21.1201H17.6309V19.4241H15.9349V21.1201Z" fill="#CB7B1D"/>
<path id="Vector_10" d="M17.6268 19.4253H19.3228V17.7293H17.6268V19.4253Z" fill="#CB7B1D"/>
<path id="Vector_11" d="M15.9349 17.7305H17.6309V16.0345H15.9349V17.7305Z" fill="#CB7B1D"/>
<path id="Vector_12" d="M17.6268 16.0356H19.3228V14.3396H17.6268V16.0356Z" fill="#CB7B1D"/>
</g>
</g>
</svg>
